<svg xmlns="http://www.w3.org/2000/svg" viewBox="555.5 139.152 22.384 22.384">
  <defs>
    <style>
      .cls-1 {
        fill: #2699fb;
        fill-rule: evenodd;
      }
    </style>
  </defs>
  <g id="Instagram" transform="translate(-693.5 -704.848)">
    <path id="Path_3" data-name="Path 3" class="cls-1" d="M11.192,1.99a34.318,34.318,0,0,1,4.477.124,5.768,5.768,0,0,1,2.114.373A4.367,4.367,0,0,1,19.9,4.6a5.768,5.768,0,0,1,.373,2.114c0,1.119.124,1.492.124,4.477a34.318,34.318,0,0,1-.124,4.477,5.768,5.768,0,0,1-.373,2.114A4.367,4.367,0,0,1,17.783,19.9a5.768,5.768,0,0,1-2.114.373c-1.119,0-1.492.124-4.477.124a34.318,34.318,0,0,1-4.477-.124A5.768,5.768,0,0,1,4.6,19.9a4.367,4.367,0,0,1-2.114-2.114,5.768,5.768,0,0,1-.373-2.114c0-1.119-.124-1.492-.124-4.477a34.318,34.318,0,0,1,.124-4.477A5.768,5.768,0,0,1,2.487,4.6a4.466,4.466,0,0,1,.871-1.244A2.1,2.1,0,0,1,4.6,2.487a5.768,5.768,0,0,1,2.114-.373,34.318,34.318,0,0,1,4.477-.124m0-1.99a36.744,36.744,0,0,0-4.6.124,7.677,7.677,0,0,0-2.736.5,4.868,4.868,0,0,0-1.99,1.244A4.868,4.868,0,0,0,.622,3.855a5.666,5.666,0,0,0-.5,2.736A36.744,36.744,0,0,0,0,11.192a36.744,36.744,0,0,0,.124,4.6,7.677,7.677,0,0,0,.5,2.736,4.868,4.868,0,0,0,1.244,1.99,4.868,4.868,0,0,0,1.99,1.244,7.677,7.677,0,0,0,2.736.5,36.744,36.744,0,0,0,4.6.124,36.744,36.744,0,0,0,4.6-.124,7.677,7.677,0,0,0,2.736-.5,5.217,5.217,0,0,0,3.233-3.233,7.677,7.677,0,0,0,.5-2.736c0-1.244.124-1.617.124-4.6a36.744,36.744,0,0,0-.124-4.6,7.677,7.677,0,0,0-.5-2.736,4.868,4.868,0,0,0-1.244-1.99A4.868,4.868,0,0,0,18.529.622a7.677,7.677,0,0,0-2.736-.5A36.744,36.744,0,0,0,11.192,0m0,5.472a5.628,5.628,0,0,0-5.72,5.72,5.72,5.72,0,1,0,5.72-5.72m0,9.451a3.664,3.664,0,0,1-3.731-3.731,3.664,3.664,0,0,1,3.731-3.731,3.664,3.664,0,0,1,3.731,3.731,3.664,3.664,0,0,1-3.731,3.731M17.161,3.855a1.368,1.368,0,1,0,1.368,1.368,1.38,1.38,0,0,0-1.368-1.368" transform="translate(1249 844)"/>
  </g>
</svg>
