<svg xmlns="http://www.w3.org/2000/svg" viewBox="217.565 136 28.443 23.07">
  <defs>
    <style>
      .cls-1 {
        fill: #2699fb;
        fill-rule: evenodd;
      }
    </style>
  </defs>
  <path id="Path_4" data-name="Path 4" class="cls-1" d="M47.007,25.07C57.752,25.07,63.6,16.221,63.6,8.479v-.79a12.845,12.845,0,0,0,2.844-3,13.117,13.117,0,0,1-3.318.948,6.148,6.148,0,0,0,2.528-3.16A14.494,14.494,0,0,1,62.018,3.9,5.643,5.643,0,0,0,57.752,2a5.937,5.937,0,0,0-5.847,5.847,3.081,3.081,0,0,0,.158,1.264A16.337,16.337,0,0,1,40.054,2.948a6.051,6.051,0,0,0-.79,3,6.278,6.278,0,0,0,2.528,4.9,5.327,5.327,0,0,1-2.686-.79h0a5.775,5.775,0,0,0,4.74,5.689,4.871,4.871,0,0,1-1.58.158,2.689,2.689,0,0,1-1.106-.158,5.986,5.986,0,0,0,5.531,4.108,11.93,11.93,0,0,1-7.269,2.528A4.375,4.375,0,0,1,38,22.226a14.915,14.915,0,0,0,9.007,2.844" transform="translate(179.565 134)"/>
</svg>
